<svg xmlns="http://www.w3.org/2000/svg" viewBox="0 0 22 22" width="22" height="22">
  <path d="M5.5 16 Q5.5 18.5,8 18.5 L20 18.5 Q23.5 18.5,23.5 15 Q23.5 12,20.5 11.5 Q21 10.5,21 9.5 Q21 6.5,17.5 6.5 Q16 4.5,12.5 4.5 Q9 5,8.5 8 Q6 8,5.5 10.5 Q3.5 11,3.5 13.5 Q3.5 16,5.5 16 Z" fill="none" stroke="#c8c8c8" stroke-width="1.2"/>
  <path d="M13 9.5 L18.5 9.5 L13 15.5 L18.5 15.5" fill="none" stroke="#c8c8c8" stroke-width="2" stroke-linecap="round" stroke-linejoin="round"/>
  <g opacity="0.5">
    <path d="M7.7 10.8 L9.2 12.2 L7.7 13.6" fill="none" stroke="#c8c8c8" stroke-width="1.2" stroke-linecap="round" stroke-linejoin="round"/>
    <line x1="7.4" y1="15.1" x2="9.6" y2="15.1" stroke="#c8c8c8" stroke-width="1.2" stroke-linecap="round"/>
  </g>
</svg>
