<svg xmlns="http://www.w3.org/2000/svg" viewBox="0 0 44 44" width="44" height="44">
  
  <path d="M 22 8 Q 32 8, 34 18 L 34 26 Q 34 33, 28 35 L 16 35 Q 10 33, 10 26 L 10 18 Q 12 8, 22 8 Z" fill="#000000"></path>
  <path d="M 14 17 Q 14 15, 16 14.5 L 28 14.5 Q 30 15, 30 17 L 30 25 Q 30 27, 28 27.5 L 16 27.5 Q 14 27, 14 25 Z" fill="#ffffff"></path>
  <rect x="20" y="18.5" width="4" height="5.5" rx="0.6" fill="#000000"></rect>
  <rect x="15" y="35" width="14" height="3" rx="0.8" fill="#000000"></rect>
</svg>